<svg
 xmlns="http://www.w3.org/2000/svg"
 xmlns:xlink="http://www.w3.org/1999/xlink"
 width="662px" height="578px">
<path fill-rule="evenodd"  fill="rgb(34, 31, 32)"
 d="M57.128,577.999 L24.157,577.999 C6.211,577.999 -4.1000,558.567 3.985,543.033 L235.773,142.281 C244.740,126.778 267.117,126.764 276.103,142.256 L292.612,170.717 C296.801,177.938 296.806,186.848 292.627,194.073 L77.301,566.364 C73.136,573.565 65.447,577.999 57.128,577.999 ZM351.213,270.740 L367.758,299.347 C371.922,306.546 371.933,315.418 367.787,322.627 L227.644,566.314 C223.487,573.543 215.783,577.999 207.443,577.999 L174.180,577.999 C156.252,577.999 145.039,558.602 153.987,543.068 L310.848,270.775 C319.803,255.230 342.230,255.211 351.213,270.740 Z"/>
<path fill-rule="evenodd"  fill="rgb(30, 139, 241)"
 d="M304.264,543.008 L320.762,514.566 C324.931,507.379 332.611,502.955 340.920,502.955 L548.024,502.954 L294.153,64.703 C289.971,57.484 289.968,48.580 294.145,41.358 L310.827,12.515 C319.800,-2.999 342.199,-2.999 351.172,12.515 L658.014,543.033 C666.999,558.567 655.788,577.999 637.842,577.999 L324.422,577.999 C306.463,577.999 295.254,558.542 304.264,543.008 Z"/>
</svg>
